<svg xmlns="http://www.w3.org/2000/svg" width="740" height="480" viewBox="0 0 740 480">
<rect width="100%" height="100%" fill="#ffffff" />
<text x="370" y="30" text-anchor="middle" font-size="18" font-family="sans-serif" font-weight="bold" fill="#1a1a1a">Top 5 Genres by Revenue</text>
<path d="M 210,240 L 210.00,80.00 A 160,160 0 0 1 251.82,394.44 Z" fill="#4a86e8" stroke="#fff" stroke-width="1.5" />
<path d="M 210,240 L 251.82,394.44 A 160,160 0 0 1 69.98,317.43 Z" fill="#e07798" stroke="#fff" stroke-width="1.5" />
<path d="M 210,240 L 69.98,317.43 A 160,160 0 0 1 62.91,177.03 Z" fill="#44b984" stroke="#fff" stroke-width="1.5" />
<path d="M 210,240 L 62.91,177.03 A 160,160 0 0 1 158.83,88.40 Z" fill="#ffad47" stroke="#fff" stroke-width="1.5" />
<path d="M 210,240 L 158.83,88.40 A 160,160 0 0 1 210.00,80.00 Z" fill="#a479e2" stroke="#fff" stroke-width="1.5" />
<rect x="400" y="38" width="14" height="14" fill="#4a86e8" /><text x="420" y="50" font-size="13" font-family="sans-serif" fill="#1a1a1a">Rock (46%)</text>
<rect x="400" y="60" width="14" height="14" fill="#e07798" /><text x="420" y="72" font-size="13" font-family="sans-serif" fill="#1a1a1a">Latin (21%)</text>
<rect x="400" y="82" width="14" height="14" fill="#44b984" /><text x="420" y="94" font-size="13" font-family="sans-serif" fill="#1a1a1a">Metal (14%)</text>
<rect x="400" y="104" width="14" height="14" fill="#ffad47" /><text x="420" y="116" font-size="13" font-family="sans-serif" fill="#1a1a1a">Alternative &amp; Punk (13%)</text>
<rect x="400" y="126" width="14" height="14" fill="#a479e2" /><text x="420" y="138" font-size="13" font-family="sans-serif" fill="#1a1a1a">TV Shows (5%)</text>
</svg>