<svg width="740" height="430" xmlns="http://www.w3.org/2000/svg" font-family="-apple-system, BlinkMacSystemFont, 'Segoe UI', sans-serif">
  <rect width="740" height="430" fill="#F2FAFF" rx="8"/>
  <text x="370" y="32" text-anchor="middle" font-size="15" font-weight="700" fill="#1E3A5F">What is a Deep Agent?</text>
  <text x="370" y="51" text-anchor="middle" font-size="11" fill="#6A8EB0">An LLM, wrapped in a loop, wrapped in a harness</text>

  <!-- DEEP AGENT outer box (new this step, drawn first so it sits behind) -->
  <rect x="60" y="70" width="620" height="302" rx="10" fill="#EAF6FF" stroke="#2A7AB0" stroke-width="2"/>
  <text x="80" y="92" font-size="11" font-weight="700" fill="#15557F">DEEP AGENT  ·  agent harness</text>

  <!-- AGENT box -->
  <rect x="170" y="120" width="400" height="200" rx="8" fill="white" stroke="#1E3A5F" stroke-width="2"/>
  <text x="190" y="141" font-size="11" font-weight="700" fill="#1E3A5F">AGENT  ·  tool-calling loop</text>

  <!-- LLM (center) -->
  <rect x="300" y="168" width="140" height="66" rx="6" fill="#CCE5FF" stroke="#3A74D4" stroke-width="1"/>
  <text x="370" y="205" text-anchor="middle" font-size="16" font-weight="700" fill="#1A3A7A">LLM</text>
  <text x="370" y="223" text-anchor="middle" font-size="9" fill="#3A74D4">text in → text out</text>

  <!-- loop arrows -->
  <line x1="345" y1="236" x2="345" y2="265" stroke="#5A7A9F" stroke-width="1.5"/>
  <polygon points="341,260 345,268 349,260" fill="#5A7A9F"/>
  <text x="333" y="255" text-anchor="end" font-size="8" fill="#5A7A9F">call</text>
  <line x1="395" y1="266" x2="395" y2="237" stroke="#5A7A9F" stroke-width="1.5"/>
  <polygon points="391,244 395,236 399,244" fill="#5A7A9F"/>
  <text x="407" y="255" text-anchor="start" font-size="8" fill="#5A7A9F">result</text>

  <!-- Tools chip -->
  <rect x="250" y="268" width="240" height="26" rx="13" fill="#FFE8CC" stroke="#D4834A" stroke-width="1"/>
  <text x="370" y="285" text-anchor="middle" font-size="9.5" fill="#7A3A10">Tools: search, code, APIs, …</text>

  <text x="370" y="311" text-anchor="middle" font-size="8.5" font-style="italic" fill="#6A8EB0">↻ loops until the task is done</text>

  <!-- built-in capability chips (new this step) -->
  <text x="370" y="334" text-anchor="middle" font-size="8" letter-spacing="0.8" fill="#6A8EB0">BUILT-IN CAPABILITIES, READY OUT OF THE BOX</text>
  <rect x="72"  y="340" width="110" height="24" rx="12" fill="#DDEEF7" stroke="#2A7AB0" stroke-width="1"/>
  <text x="127" y="356" text-anchor="middle" font-size="9" fill="#15557F">system prompt</text>
  <rect x="190" y="340" width="104" height="24" rx="12" fill="#DDEEF7" stroke="#2A7AB0" stroke-width="1"/>
  <text x="242" y="356" text-anchor="middle" font-size="9" fill="#15557F">write_todos</text>
  <rect x="302" y="340" width="92"  height="24" rx="12" fill="#DDEEF7" stroke="#2A7AB0" stroke-width="1"/>
  <text x="348" y="356" text-anchor="middle" font-size="9" fill="#15557F">filesystem</text>
  <rect x="402" y="340" width="92"  height="24" rx="12" fill="#DDEEF7" stroke="#2A7AB0" stroke-width="1"/>
  <text x="448" y="356" text-anchor="middle" font-size="9" fill="#15557F">subagents</text>
  <rect x="502" y="340" width="110" height="24" rx="12" fill="#DDEEF7" stroke="#2A7AB0" stroke-width="1"/>
  <text x="557" y="356" text-anchor="middle" font-size="9" fill="#15557F">context mgmt</text>
</svg>
