<svg width="740" height="430" xmlns="http://www.w3.org/2000/svg" font-family="'Inter', -apple-system, BlinkMacSystemFont, 'Segoe UI', sans-serif">
  <rect width="740" height="430" fill="#030710" rx="8"/>
  <text x="370" y="34" text-anchor="middle" font-size="15" font-weight="300" fill="#F2FAFF">What is a Deep Agent?</text>
  <text x="370" y="53" text-anchor="middle" font-size="11" fill="#99D3FF" font-family="'IBM Plex Mono', ui-monospace, SFMono-Regular, Menlo, Consolas, monospace">An LLM, wrapped in a loop, wrapped in a harness</text>

  <!-- DEEP AGENT outer box (drawn first, behind) -->
  <rect x="60" y="70" width="620" height="302" rx="10" fill="#0D1322" stroke="#2F4B68" stroke-width="2"/>
  <text x="80" y="92" font-size="11" font-weight="400" fill="#5BADDF" font-family="'IBM Plex Mono', ui-monospace, SFMono-Regular, Menlo, Consolas, monospace">DEEP AGENT  ·  agent harness</text>

  <!-- AGENT box -->
  <rect x="170" y="120" width="400" height="200" rx="8" fill="#1E3A5F" stroke="#40668D" stroke-width="2"/>
  <text x="190" y="141" font-size="11" font-weight="400" fill="#99D3FF" font-family="'IBM Plex Mono', ui-monospace, SFMono-Regular, Menlo, Consolas, monospace">AGENT  ·  tool-calling loop</text>

  <!-- LLM -->
  <rect x="300" y="168" width="140" height="66" rx="6" fill="#0D1322" stroke="#7FC8FF" stroke-width="2"/>
  <text x="370" y="205" text-anchor="middle" font-size="16" font-weight="400" fill="#F2FAFF">LLM</text>
  <text x="370" y="223" text-anchor="middle" font-size="9" fill="#99D3FF" font-family="'IBM Plex Mono', ui-monospace, SFMono-Regular, Menlo, Consolas, monospace">text in → text out</text>

  <!-- loop arrows -->
  <line x1="345" y1="236" x2="345" y2="262" stroke="#40668D" stroke-width="1.5"/>
  <polygon points="341,258 345,266 349,258" fill="#7FC8FF"/>
  <text x="333" y="254" text-anchor="end" font-size="8" fill="#B2DEFF">call</text>
  <line x1="395" y1="266" x2="395" y2="238" stroke="#40668D" stroke-width="1.5"/>
  <polygon points="391,245 395,237 399,245" fill="#7FC8FF"/>
  <text x="407" y="254" text-anchor="start" font-size="8" fill="#B2DEFF">result</text>

  <!-- Tools chip -->
  <rect x="255" y="270" width="230" height="26" rx="13" fill="#0D1322" stroke="#40668D" stroke-width="1"/>
  <text x="370" y="287" text-anchor="middle" font-size="9.5" fill="#B2DEFF">Tools: search, code, APIs, …</text>

  <text x="370" y="313" text-anchor="middle" font-size="8.5" fill="#5BADDF">↻ loops until the task is done</text>

  <!-- built-in capability chips -->
  <text x="370" y="337" text-anchor="middle" font-size="8" letter-spacing="0.8" fill="#5BADDF" font-family="'IBM Plex Mono', ui-monospace, SFMono-Regular, Menlo, Consolas, monospace">BUILT-IN CAPABILITIES, READY OUT OF THE BOX</text>
  <rect x="72"  y="343" width="110" height="22" rx="11" fill="#161F34" stroke="#2F4B68" stroke-width="1"/>
  <text x="127" y="358" text-anchor="middle" font-size="9" fill="#CCE9FF">system prompt</text>
  <rect x="190" y="343" width="104" height="22" rx="11" fill="#161F34" stroke="#2F4B68" stroke-width="1"/>
  <text x="242" y="358" text-anchor="middle" font-size="9" fill="#CCE9FF">write_todos</text>
  <rect x="302" y="343" width="92"  height="22" rx="11" fill="#161F34" stroke="#2F4B68" stroke-width="1"/>
  <text x="348" y="358" text-anchor="middle" font-size="9" fill="#CCE9FF">filesystem</text>
  <rect x="402" y="343" width="92"  height="22" rx="11" fill="#161F34" stroke="#2F4B68" stroke-width="1"/>
  <text x="448" y="358" text-anchor="middle" font-size="9" fill="#CCE9FF">subagents</text>
  <rect x="502" y="343" width="110" height="22" rx="11" fill="#161F34" stroke="#2F4B68" stroke-width="1"/>
  <text x="557" y="358" text-anchor="middle" font-size="9" fill="#CCE9FF">context mgmt</text>
</svg>
